<svg width="651" height="192" viewBox="0 0 651 192" fill="none" xmlns="http://www.w3.org/2000/svg">
<ellipse cx="134.5" cy="59.5" rx="65.5" ry="59.5" fill="#333A73"/>
<ellipse cx="152.5" cy="132.5" rx="65.5" ry="59.5" fill="#FBA834"/>
<ellipse cx="69" cy="108.5" rx="69" ry="65.5" fill="white"/>
<path d="M272.56 134L262 90.4H261.2L250.48 134H238L225.2 84.72C223.547 84.2933 221.307 83.52 218.48 82.4L219.2 78H238.64C239.867 80.4533 240.48 82.7733 240.48 84.96C238.88 85.28 237.04 85.52 234.96 85.68L243.36 121.04L256 78H268.16L278.64 120.56L287.28 84.72C285.627 84.2933 283.387 83.52 280.56 82.4L281.28 78H300.72C301.947 80.4533 302.56 82.7733 302.56 84.96C300.96 85.28 299.12 85.52 297.04 85.68L284.08 134H272.56ZM324.17 86C324.17 92.08 324.117 97.3067 324.01 101.68H332.17L332.97 96.16C335.69 96.16 338.33 96.8267 340.89 98.16V114.16L335.61 114.4C334.33 112.48 333.583 110.8 333.37 109.36H323.93C323.823 116.827 323.77 122.453 323.77 126.24H337.45L339.21 119.28C342.517 119.28 345.023 119.44 346.73 119.76C347.53 122.8 347.93 125.573 347.93 128.08C347.93 130.533 347.85 132.507 347.69 134H308.01L307.29 129.6C310.757 128.267 312.997 127.493 314.01 127.28C313.957 124.133 313.903 119.707 313.85 114C313.637 101.2 313.45 91.52 313.29 84.96L306.65 82.88L307.29 78H346.57C346.73 79.44 346.81 81.2533 346.81 83.44C346.81 85.5733 346.41 88.56 345.61 92.4C343.957 92.9333 341.45 93.2 338.09 93.2L336.25 86H324.17ZM375.748 126.64C384.015 126.64 388.148 123.68 388.148 117.76C388.148 113.44 387.135 110.72 385.108 109.6C383.135 108.427 378.655 107.84 371.668 107.84L371.348 126.48C373.161 126.587 374.628 126.64 375.748 126.64ZM375.268 101.28C379.375 101.173 382.281 100.64 383.988 99.68C385.695 98.72 386.548 96.72 386.548 93.68C386.548 90.5867 385.561 88.5333 383.588 87.52C381.615 86.5067 378.628 86 374.628 86H371.748C371.641 92.72 371.588 97.7867 371.588 101.2L375.268 101.28ZM375.348 134.08H355.588L354.868 129.68C357.641 128.56 359.881 127.787 361.588 127.36C361.588 127.2 361.348 113.093 360.868 85.04C360.015 84.8267 357.801 84.1333 354.228 82.96L354.868 78.08H377.028C383.375 78.08 388.308 79.3067 391.828 81.76C395.348 84.2133 397.108 87.76 397.108 92.4C397.108 94.64 396.495 97.0667 395.268 99.68C394.095 102.293 392.735 103.84 391.188 104.32C393.535 105.6 395.375 107.387 396.708 109.68C398.041 111.973 398.708 114.613 398.708 117.6C398.708 122.507 396.708 126.48 392.708 129.52C388.708 132.56 382.921 134.08 375.348 134.08Z" fill="#333A73"/>
<path d="M422.139 86C422.139 93.4667 422.085 99.3333 421.979 103.6H430.139L430.939 98.08C433.659 98.08 436.299 98.7467 438.859 100.08V115.92L433.579 116.32C432.299 114.4 431.552 112.72 431.339 111.28H421.899L421.739 126.32L429.659 127.2C429.659 129.28 429.045 131.547 427.819 134H405.979L405.259 129.6C408.725 128.267 410.965 127.493 411.979 127.28C411.925 124.133 411.872 119.707 411.819 114C411.605 101.2 411.419 91.52 411.259 84.96L404.619 82.88L405.259 78H444.539C444.699 79.44 444.779 81.28 444.779 83.52C444.779 85.7067 444.379 88.72 443.579 92.56C442.405 92.9333 440.619 93.12 438.219 93.12L436.459 93.04H436.059L434.219 86H422.139ZM473.072 126.48C481.925 126.48 486.352 119.68 486.352 106.08C486.352 92.48 481.925 85.68 473.072 85.68C469.232 85.68 465.872 86.2667 462.992 87.44C460.539 92.56 459.312 98.5067 459.312 105.28C459.312 112 460.325 117.227 462.352 120.96C464.379 124.64 467.952 126.48 473.072 126.48ZM473.072 77.04C481.979 77.04 488.245 79.3867 491.872 84.08C495.499 88.72 497.312 95.84 497.312 105.44C497.312 111.467 496.539 116.613 494.992 120.88C493.445 125.147 490.832 128.56 487.152 131.12C483.472 133.68 478.779 134.96 473.072 134.96C464.379 134.96 458.059 132.533 454.112 127.68C450.219 122.827 448.272 115.76 448.272 106.48C448.272 86.8533 456.539 77.04 473.072 77.04ZM520.949 78C530.282 78 536.469 79.3333 539.509 82C542.282 84.4 543.669 88.1067 543.669 93.12C543.669 100.907 539.615 106.213 531.509 109.04L543.029 126.4L549.909 127.12C549.909 129.413 549.295 131.707 548.069 134H536.469L520.789 110.08H518.229L517.989 126.4L523.829 127.04C523.829 129.227 523.215 131.547 521.989 134H502.229L501.509 129.6C504.709 128.32 506.949 127.547 508.229 127.28C508.122 120.72 507.989 112.8 507.829 103.52C507.669 94.24 507.562 88.0267 507.509 84.88L500.869 82.88C500.922 81.6533 501.162 80.0267 501.589 78H520.949ZM527.269 86.56C525.615 86.1867 523.402 86 520.629 86H518.389C518.282 93.36 518.229 98.88 518.229 102.56L522.149 102.48C525.295 102.427 527.775 101.787 529.589 100.56C531.455 99.28 532.389 96.8267 532.389 93.2C532.389 89.5733 530.682 87.36 527.269 86.56ZM576.409 135.04C569.155 135.04 563.369 132.587 559.049 127.68C554.729 122.773 552.569 115.52 552.569 105.92C552.569 96.32 554.435 89.12 558.169 84.32C561.955 79.4667 568.062 77.04 576.489 77.04C580.062 77.04 583.475 77.52 586.729 78.48C590.035 79.44 592.275 80.2667 593.449 80.96C594.622 81.6 595.555 82.1867 596.249 82.72C596.249 86.1333 595.822 89.92 594.969 94.08C593.582 94.72 592.195 95.04 590.809 95.04C589.475 95.04 588.329 94.9867 587.369 94.88L585.689 86.56C583.342 85.92 581.049 85.6 578.809 85.6C575.662 85.6 571.742 86.24 567.049 87.52C564.702 92.2133 563.529 97.92 563.529 104.64C563.529 119.36 567.849 126.72 576.489 126.72C580.809 126.72 584.249 126 586.809 124.56C586.915 121.787 587.022 117.52 587.129 111.76L580.409 109.68L581.049 104.8H600.409C601.049 105.973 601.529 108.08 601.849 111.12C600.035 111.493 598.089 111.76 596.009 111.92C596.329 118.8 596.489 124.72 596.489 129.68C594.942 130.693 592.142 131.84 588.089 133.12C584.035 134.4 580.142 135.04 576.409 135.04ZM623.311 86C623.311 92.08 623.257 97.3067 623.151 101.68H631.311L632.111 96.16C634.831 96.16 637.471 96.8267 640.031 98.16V114.16L634.751 114.4C633.471 112.48 632.724 110.8 632.511 109.36H623.071C622.964 116.827 622.911 122.453 622.911 126.24H636.591L638.351 119.28C641.657 119.28 644.164 119.44 645.871 119.76C646.671 122.8 647.071 125.573 647.071 128.08C647.071 130.533 646.991 132.507 646.831 134H607.151L606.431 129.6C609.897 128.267 612.137 127.493 613.151 127.28C613.097 124.133 613.044 119.707 612.991 114C612.777 101.2 612.591 91.52 612.431 84.96L605.791 82.88L606.431 78H645.711C645.871 79.44 645.951 81.2533 645.951 83.44C645.951 85.5733 645.551 88.56 644.751 92.4C643.097 92.9333 640.591 93.2 637.231 93.2L635.391 86H623.311Z" fill="#FBA834"/>
</svg>
